<svg width="66" height="14" viewBox="0 0 66 14" fill="none" xmlns="http://www.w3.org/2000/svg">
<path d="M1.48567 3.12586C1.0029 2.85763 0.394087 3.03155 0.125858 3.51433C-0.14237 3.9971 0.0315538 4.60591 0.514329 4.87414L1.48567 3.12586ZM65.9459 4.32456C66.1251 3.80218 65.8469 3.23339 65.3246 3.05414L56.8118 0.133052C56.2894 -0.0461998 55.7206 0.231965 55.5414 0.754351C55.3621 1.27674 55.6403 1.84553 56.1627 2.02478L63.7296 4.6213L61.1331 12.1882C60.9538 12.7106 61.232 13.2794 61.7543 13.4586C62.2767 13.6379 62.8455 13.3597 63.0248 12.8373L65.9459 4.32456ZM0.514329 4.87414C12.9742 11.7968 36.5598 19.0218 65.4393 4.89833L64.5607 3.10167C36.4105 16.8684 13.5275 9.81626 1.48567 3.12586L0.514329 4.87414Z" fill="white"/>
</svg>
