<svg width="18" height="89" viewBox="0 0 18 89" fill="none" xmlns="http://www.w3.org/2000/svg">
<path d="M3.66602 0.254062C3.25405 -0.113768 2.62189 -0.0779858 2.25406 0.333984C1.88623 0.745954 1.92201 1.37811 2.33398 1.74594L3.66602 0.254062ZM2.01224 88.156C2.09837 88.7015 2.61044 89.0739 3.15596 88.9878L12.0458 87.5841C12.5914 87.498 12.9638 86.9859 12.8776 86.4404C12.7915 85.8949 12.2794 85.5224 11.7339 85.6086L3.8318 86.8563L2.5841 78.9542C2.49796 78.4086 1.9859 78.0362 1.44037 78.1224C0.894848 78.2085 0.522438 78.7206 0.608574 79.2661L2.01224 88.156ZM2.33398 1.74594C5.67191 4.72623 8.74776 9.6409 11.1214 15.891C13.4894 22.1263 15.1329 29.6243 15.6521 37.7016C16.6908 53.8639 13.2235 72.2425 2.19126 87.4118L3.80874 88.5882C15.1765 72.9575 18.7092 54.0861 17.6479 37.5734C17.1171 29.3132 15.4356 21.6175 12.9911 15.1809C10.5522 8.7591 7.32808 3.52377 3.66602 0.254062L2.33398 1.74594Z" fill="white"/>
</svg>
