<svg width="561" height="166" viewBox="0 0 561 166" fill="none" xmlns="http://www.w3.org/2000/svg">
<path d="M144.92 2.61763C145.471 2.66166 145.953 2.25106 145.997 1.70053C146.041 1.15 145.63 0.668022 145.08 0.623996L144.92 2.61763ZM1 89.3173H-7.95126e-05L7.95126e-05 89.3299L1 89.3173ZM145 161.069L145.053 162.068L145.075 162.066L145.097 162.064L145 161.069ZM361 140L361.097 140.995L361.108 140.994L361 140ZM555.655 165.939C556.173 166.129 556.748 165.863 556.939 165.345L560.044 156.898C560.234 156.379 559.968 155.805 559.45 155.614C558.932 155.423 558.357 155.689 558.167 156.208L555.406 163.716L547.898 160.956C547.379 160.766 546.805 161.032 546.614 161.55C546.423 162.068 546.689 162.643 547.208 162.834L555.655 165.939ZM145.08 0.623996C120.982 -1.3031 84.8098 0.779234 54.6158 13.3427C39.5093 19.6284 25.8519 28.5575 15.9678 40.9678C6.07184 53.393 0 69.2566 0 89.3173H2C2 69.6932 7.92816 54.2725 17.5322 42.2138C27.1481 30.1404 40.4907 21.3862 55.3842 15.1892C85.1902 2.7872 121.018 0.706155 144.92 2.61763L145.08 0.623996ZM7.95126e-05 89.3299C0.171042 102.884 7.74488 122.617 29.6458 138.177C51.5454 153.736 87.7095 165.087 145.053 162.068L144.947 160.07C87.8905 163.075 52.2212 151.763 30.8042 136.547C9.38846 121.332 2.16229 102.178 1.99992 89.3047L7.95126e-05 89.3299ZM145.097 162.064L361.097 140.995L360.903 139.005L144.903 160.074L145.097 162.064ZM361.108 140.994C395.551 137.25 440.833 136.15 479.184 139.655C498.363 141.407 515.764 144.308 529.193 148.585C535.908 150.723 541.596 153.195 546.008 156.017C550.424 158.841 553.5 161.977 555.092 165.42L556.908 164.58C555.1 160.67 551.689 157.276 547.085 154.332C542.477 151.385 536.614 148.849 529.8 146.679C516.174 142.34 498.612 139.422 479.366 137.663C440.867 134.145 395.449 135.25 360.892 139.006L361.108 140.994Z" fill="white"/>
</svg>
