<svg width="29" height="30" viewBox="0 0 29 30" fill="none" xmlns="http://www.w3.org/2000/svg">
<path d="M9.66783 15C9.66783 12.2387 11.8312 9.9996 14.5006 9.9996C17.17 9.9996 19.3345 12.2387 19.3345 15C19.3345 17.7613 17.17 20.0004 14.5006 20.0004C11.8312 20.0004 9.66783 17.7613 9.66783 15ZM7.05471 15C7.05471 19.254 10.3882 22.7023 14.5006 22.7023C18.6129 22.7023 21.9465 19.254 21.9465 15C21.9465 10.746 18.6129 7.29768 14.5006 7.29768C10.3882 7.29768 7.05471 10.746 7.05471 15ZM20.5012 6.99228C20.501 7.34829 20.6029 7.69634 20.794 7.99243C20.9851 8.28852 21.2568 8.51934 21.5747 8.65571C21.8926 8.79208 22.2424 8.82787 22.58 8.75855C22.9176 8.68924 23.2277 8.51793 23.4711 8.2663C23.7146 8.01467 23.8804 7.69401 23.9477 7.34487C24.015 6.99573 23.9807 6.6338 23.8491 6.30483C23.7175 5.97587 23.4946 5.69466 23.2085 5.49675C22.9225 5.29885 22.5861 5.19314 22.2419 5.193C21.7806 5.19322 21.3375 5.38284 21.0113 5.7202C20.685 6.05756 20.5016 6.51508 20.5012 6.99228ZM8.64235 27.2096C7.2286 27.143 6.46018 26.8994 5.94953 26.6936C5.27253 26.421 4.78948 26.0963 4.28162 25.5716C3.77375 25.047 3.45937 24.5478 3.19697 23.8475C2.99791 23.3195 2.76242 22.5244 2.69815 21.0619C2.62785 19.4808 2.61382 19.0058 2.61382 15.0001C2.61382 10.9944 2.62901 10.5208 2.69815 8.93832C2.76253 7.47588 2.99976 6.68232 3.19697 6.15276C3.46053 5.45244 3.77444 4.95276 4.28162 4.4274C4.78879 3.90204 5.27137 3.57684 5.94953 3.3054C6.45995 3.09948 7.2286 2.85588 8.64235 2.7894C10.1708 2.71668 10.63 2.70216 14.5006 2.70216C18.3712 2.70216 18.8308 2.71788 20.3606 2.7894C21.7743 2.856 22.5414 3.1014 23.0534 3.3054C23.7304 3.57684 24.2134 3.90276 24.7213 4.4274C25.2292 4.95204 25.5424 5.45244 25.8059 6.15276C26.005 6.68076 26.2405 7.47588 26.3048 8.93832C26.375 10.5208 26.3891 10.9944 26.3891 15.0001C26.3891 19.0058 26.375 19.4795 26.3048 21.0619C26.2404 22.5244 26.0037 23.3192 25.8059 23.8475C25.5424 24.5478 25.2285 25.0475 24.7213 25.5716C24.2141 26.0958 23.7304 26.421 23.0534 26.6936C22.543 26.8996 21.7743 27.1432 20.3606 27.2096C18.8321 27.2824 18.3729 27.2969 14.5006 27.2969C10.6282 27.2969 10.1704 27.2824 8.64235 27.2096ZM8.52228 0.09084C6.97861 0.16356 5.92378 0.41676 5.00258 0.78756C4.04856 1.17048 3.24094 1.6842 2.43389 2.51772C1.62685 3.35124 1.13151 4.188 0.761338 5.17488C0.402884 6.1284 0.158114 7.21896 0.0878155 8.8158C0.0163567 10.4152 0 10.9265 0 15C0 19.0735 0.0163567 19.5848 0.0878155 21.1842C0.158114 22.7812 0.402884 23.8716 0.761338 24.8251C1.13151 25.8114 1.62697 26.6491 2.43389 27.4823C3.24082 28.3154 4.04856 28.8284 5.00258 29.2124C5.92552 29.5832 6.97861 29.8364 8.52228 29.9092C10.0692 29.9819 10.5627 30 14.5006 30C18.4385 30 18.9328 29.9831 20.4789 29.9092C22.0227 29.8364 23.0768 29.5832 23.9986 29.2124C24.952 28.8284 25.7602 28.3158 26.5673 27.4823C27.3743 26.6488 27.8686 25.8114 28.2398 24.8251C28.5983 23.8716 28.8442 22.781 28.9133 21.1842C28.9836 19.5836 29 19.0735 29 15C29 10.9265 28.9836 10.4152 28.9133 8.8158C28.843 7.21884 28.5983 6.1278 28.2398 5.17488C27.8686 4.1886 27.373 3.35256 26.5673 2.51772C25.7615 1.68288 24.952 1.17048 23.9997 0.78756C23.0768 0.41676 22.0226 0.16236 20.48 0.09084C18.9339 0.01812 18.4396 0 14.5017 0C10.5638 0 10.0692 0.01692 8.52228 0.09084Z" fill="white"/>
</svg>
