<svg width="88" height="29" viewBox="0 0 88 29" fill="none" xmlns="http://www.w3.org/2000/svg">
<path d="M7.81447 23.336C6.43847 23.336 5.11047 23.168 3.83047 22.832C2.56647 22.48 1.53447 22.032 0.734469 21.488L2.29447 17.984C3.04647 18.464 3.91047 18.864 4.88647 19.184C5.87847 19.488 6.86247 19.64 7.83847 19.64C8.49447 19.64 9.02247 19.584 9.42247 19.472C9.82247 19.344 10.1105 19.184 10.2865 18.992C10.4785 18.784 10.5745 18.544 10.5745 18.272C10.5745 17.888 10.3985 17.584 10.0465 17.36C9.69447 17.136 9.23847 16.952 8.67847 16.808C8.11847 16.664 7.49447 16.52 6.80647 16.376C6.13447 16.232 5.45447 16.048 4.76647 15.824C4.09447 15.6 3.47847 15.312 2.91847 14.96C2.35847 14.592 1.90247 14.12 1.55047 13.544C1.19847 12.952 1.02247 12.208 1.02247 11.312C1.02247 10.304 1.29447 9.392 1.83847 8.576C2.39847 7.76 3.23047 7.104 4.33447 6.608C5.43847 6.112 6.81447 5.864 8.46247 5.864C9.56647 5.864 10.6465 5.992 11.7025 6.248C12.7745 6.488 13.7265 6.848 14.5585 7.328L13.0945 10.856C12.2945 10.424 11.5025 10.104 10.7185 9.896C9.93447 9.672 9.17447 9.56 8.43847 9.56C7.78247 9.56 7.25447 9.632 6.85447 9.776C6.45447 9.904 6.16647 10.08 5.99047 10.304C5.81447 10.528 5.72647 10.784 5.72647 11.072C5.72647 11.44 5.89447 11.736 6.23047 11.96C6.58247 12.168 7.03847 12.344 7.59847 12.488C8.17447 12.616 8.79847 12.752 9.47047 12.896C10.1585 13.04 10.8385 13.224 11.5105 13.448C12.1985 13.656 12.8225 13.944 13.3825 14.312C13.9425 14.664 14.3905 15.136 14.7265 15.728C15.0785 16.304 15.2545 17.032 15.2545 17.912C15.2545 18.888 14.9745 19.792 14.4145 20.624C13.8705 21.44 13.0465 22.096 11.9425 22.592C10.8545 23.088 9.47847 23.336 7.81447 23.336Z" fill="#E27048"/>
<path d="M21.0255 23V9.968H15.8655V6.2H30.9135V9.968H25.7775V23H21.0255ZM29.8242 23L37.2402 6.2H41.9202L49.3602 23H44.4162L38.6082 8.528H40.4802L34.6722 23H29.8242ZM33.8802 19.736L35.1042 16.232H43.3122L44.5362 19.736H33.8802ZM50.7073 23V6.2H58.3873C59.9233 6.2 61.2433 6.448 62.3473 6.944C63.4673 7.44 64.3313 8.16 64.9393 9.104C65.5473 10.032 65.8513 11.136 65.8513 12.416C65.8513 13.68 65.5473 14.776 64.9393 15.704C64.3313 16.616 63.4673 17.32 62.3473 17.816C61.2433 18.296 59.9233 18.536 58.3873 18.536H53.3473L55.4593 16.544V23H50.7073ZM61.0993 23L56.9233 16.88H61.9873L66.1873 23H61.0993ZM55.4593 17.048L53.3473 14.864H58.0993C59.0913 14.864 59.8273 14.648 60.3073 14.216C60.8033 13.784 61.0513 13.184 61.0513 12.416C61.0513 11.632 60.8033 11.024 60.3073 10.592C59.8273 10.16 59.0913 9.944 58.0993 9.944H53.3473L55.4593 7.76V17.048ZM71.8146 23V9.968H66.6546V6.2H81.7026V9.968H76.5666V23H71.8146ZM84.3567 23.216C83.5887 23.216 82.9407 22.96 82.4127 22.448C81.8847 21.936 81.6207 21.288 81.6207 20.504C81.6207 19.688 81.8847 19.04 82.4127 18.56C82.9407 18.064 83.5887 17.816 84.3567 17.816C85.1247 17.816 85.7727 18.064 86.3007 18.56C86.8287 19.04 87.0927 19.688 87.0927 20.504C87.0927 21.288 86.8287 21.936 86.3007 22.448C85.7727 22.96 85.1247 23.216 84.3567 23.216Z" fill="white"/>
</svg>
