<svg width="638" height="157" viewBox="0 0 638 157" fill="none" xmlns="http://www.w3.org/2000/svg">
<path d="M139.5 17.5C92.7 -8.5 27 0.999996 0 9L205 108.5L356.5 153.5L468 136L638 32.5C592.8 38.9 519.5 20.1667 488.5 10L447.5 28C431.5 32 400.5 62.3333 387 77L335 83C321.8 67 297.833 63 287.5 63C276.3 59.8 258.833 58.3333 251.5 58C209.1 55.6 159.167 30 139.5 17.5Z" fill="url(#paint0_linear_101_3)"/>
<path d="M82.5 0.999996C52.9 -1.4 19.8333 4 7 7L210.5 114L347.5 156.5L464 135.5L637.5 32.5C623.1 36.1 588.833 32.3333 573.5 30L567.5 45.5C555.9 62.7 513.667 68.3333 494 69C462 110.6 412.667 127.333 392 130.5C349.2 136.5 312.167 116.333 299 105.5C286.6 97.1 246.167 99 227.5 101C203.9 92.2 155.667 53.6667 134.5 35.5C115.3 13.5 91.8333 3.33333 82.5 0.999996Z" fill="#663554"/>
<defs>
<linearGradient id="paint0_linear_101_3" x1="319" y1="66" x2="319" y2="138" gradientUnits="userSpaceOnUse">
<stop stop-color="#AF4958"/>
<stop offset="1" stop-color="#7C3C56"/>
</linearGradient>
</defs>
</svg>
